<svg id="Logo" xmlns="http://www.w3.org/2000/svg" viewBox="0 0 794.3 268.4"><style>.st0{fill:#41b883}.st1{fill:#34495e}</style><g id="VUECOMMUNITY"><path id="V" class="st0" d="M225.5 15.3L214.1 44h-10.8l-11.4-28.8h10.8l6 18.2 6-18.2h10.8z"/><path id="U_2_" class="st0" d="M275 15.3V44h-9v-3.3c-1.2 1.3-2.5 2.3-4 3.1-1.5.8-3.2 1.1-5.1 1.1-2 0-3.7-.3-5.2-.9-1.4-.6-2.6-1.5-3.6-2.5-.9-1.1-1.6-2.3-2.1-3.7-.5-1.4-.7-2.9-.7-4.6V15.3h10.2v16.5c0 1.5.4 2.6 1.2 3.4.8.7 1.9 1.1 3.1 1.1 1.2 0 2.2-.3 3-.8.8-.6 1.5-1.1 1.9-1.7V15.3H275z"/><path id="E_1_" class="st0" d="M296.5 29.7c0-2.8.5-5.2 1.5-7.1 1-2 2.2-3.5 3.7-4.7 1.5-1.2 3.1-2.1 4.9-2.6 1.8-.5 3.4-.8 5-.8 3.1 0 5.6.6 7.7 1.6 2 1.1 3.6 2.5 4.7 4.3 1.1 1.7 1.8 3.7 2 5.9.2 2.2.1 4.4-.4 6.6h-18.8c.3.8.7 1.5 1.3 2 .6.6 1.3 1 2.1 1.4.8.4 1.7.6 2.7.8 1 .2 2 .2 3 .2 1.6 0 3.1-.1 4.5-.4 1.3-.2 2.6-.6 3.8-1v7.5c-1.4.5-2.9.9-4.6 1.2-1.7.3-3.7.4-6 .4-2.4 0-4.6-.3-6.7-1-2.1-.7-3.9-1.6-5.4-2.9-1.5-1.3-2.8-2.9-3.7-4.8-.9-2-1.3-4.2-1.3-6.6zm19.8-3.1c.1-.4.1-.8 0-1.3s-.3-1.1-.6-1.6-.8-1-1.4-1.3c-.6-.4-1.5-.6-2.5-.6-1.4 0-2.6.4-3.6 1.3s-1.5 2-1.5 3.6h9.6z"/><path id="C" class="st1" d="M346.1 30.3c0-2.8.5-5.3 1.4-7.3 1-2 2.2-3.7 3.8-4.9 1.6-1.3 3.3-2.2 5.3-2.8 2-.6 4-.9 6.1-.9 1.6 0 3.1.2 4.6.5 1.5.3 2.9.8 4.3 1.5V25c-1-.6-2.1-1-3.4-1.4-1.3-.4-2.6-.6-3.9-.6-1 0-2 .1-2.9.4-.9.2-1.7.6-2.5 1.1-.7.5-1.3 1.2-1.7 2-.4.8-.6 1.9-.6 3.1 0 1.2.2 2.1.6 3 .4.8 1 1.5 1.6 2 .7.5 1.5.9 2.4 1.2.9.3 1.9.4 2.8.4 1.5 0 2.9-.2 4.3-.5 1.3-.4 2.5-.8 3.5-1.4V43c-1.4.6-3 1.1-4.6 1.4-1.7.3-3.4.5-5.2.5-2 0-4-.3-5.9-.9-1.9-.6-3.6-1.5-5.1-2.7-1.5-1.2-2.7-2.7-3.6-4.6-.8-1.7-1.3-3.9-1.3-6.4z"/><path id="O" class="st1" d="M392.2 29.7c0-2.6.4-4.8 1.3-6.7.9-1.9 2.1-3.5 3.5-4.8 1.5-1.3 3.2-2.2 5.2-2.9 2-.6 4-1 6.2-1s4.2.3 6.2 1c2 .6 3.7 1.6 5.2 2.9 1.5 1.3 2.7 2.9 3.5 4.8.9 1.9 1.3 4.1 1.3 6.7s-.4 4.8-1.3 6.7c-.9 1.9-2.1 3.5-3.5 4.8s-3.2 2.2-5.2 2.9c-2 .6-4 1-6.2 1s-4.2-.3-6.2-1c-2-.6-3.7-1.6-5.2-2.9s-2.7-2.9-3.5-4.8c-.8-2-1.3-4.2-1.3-6.7zm21.9 0c0-.8-.1-1.6-.3-2.3-.2-.8-.5-1.4-1-2-.5-.6-1-1-1.8-1.4-.7-.4-1.6-.5-2.6-.5s-1.9.2-2.7.5c-.7.4-1.3.8-1.8 1.4-.4.6-.8 1.2-1 2-.2.8-.3 1.5-.3 2.3s.1 1.6.3 2.3c.2.8.5 1.4 1 2 .4.6 1 1 1.8 1.4.7.4 1.6.5 2.7.5 1 0 1.9-.2 2.6-.5.7-.4 1.3-.8 1.8-1.4.5-.6.8-1.2 1-2 .2-.8.3-1.5.3-2.3z"/><path id="M_1_" class="st1" d="M446 44V15.3h9v3.1c.4-.4.8-.9 1.4-1.4.6-.5 1.3-.9 2-1.3s1.6-.7 2.5-.9c.9-.2 1.9-.4 2.9-.4 2.2 0 3.9.4 5.3 1.1 1.4.8 2.4 1.7 3.2 2.8 1.2-1.1 2.5-2 4-2.8 1.5-.8 3.2-1.2 5.2-1.2 2.2 0 3.9.4 5.3 1.1 1.4.8 2.5 1.7 3.2 2.8.8 1.1 1.3 2.4 1.6 3.7.3 1.3.5 2.5.5 3.6V44H482V26.5c0-1.2-.3-2-1-2.6-.6-.6-1.4-.8-2.3-.8-.7 0-1.4.2-2.1.5-.7.3-1.4.8-2.1 1.4v19h-10.2V26.5c0-1.2-.3-2-1-2.6-.6-.6-1.4-.8-2.3-.8-.8 0-1.6.2-2.5.6s-1.6 1-2.3 1.9V44H446z"/><path id="M" class="st1" d="M514.8 44V15.3h9v3.1c.4-.4.8-.9 1.4-1.4.6-.5 1.3-.9 2-1.3s1.6-.7 2.5-.9c.9-.2 1.9-.4 2.9-.4 2.2 0 3.9.4 5.3 1.1 1.4.8 2.4 1.7 3.2 2.8 1.2-1.1 2.5-2 4-2.8 1.5-.8 3.2-1.2 5.2-1.2 2.2 0 3.9.4 5.3 1.1 1.4.8 2.5 1.7 3.2 2.8.8 1.1 1.3 2.4 1.6 3.7.3 1.3.5 2.5.5 3.6V44h-10.2V26.5c0-1.2-.3-2-1-2.6-.6-.6-1.4-.8-2.3-.8-.7 0-1.4.2-2.1.5-.7.3-1.4.8-2.1 1.4v19H533V26.5c0-1.2-.3-2-1-2.6-.6-.6-1.4-.8-2.3-.8-.8 0-1.6.2-2.5.6s-1.6 1-2.3 1.9V44h-10.1z"/><path id="U_1_" class="st1" d="M612.9 15.3V44h-9v-3.3c-1.2 1.3-2.5 2.3-4 3.1-1.5.8-3.2 1.1-5.1 1.1-2 0-3.7-.3-5.2-.9-1.4-.6-2.6-1.5-3.6-2.5-.9-1.1-1.6-2.3-2.1-3.7-.5-1.4-.7-2.9-.7-4.6V15.3h10.2v16.5c0 1.5.4 2.6 1.2 3.4.8.7 1.9 1.1 3.1 1.1 1.2 0 2.2-.3 3-.8.8-.6 1.5-1.1 1.9-1.7V15.3h10.3z"/><path id="N" class="st1" d="M648.8 15.5c1.5-.8 3.2-1.1 5.1-1.1 2 0 3.7.3 5.1.9 1.5.6 2.7 1.5 3.6 2.5s1.6 2.3 2.1 3.8c.5 1.4.7 3 .7 4.6V44h-10.2V27.6c0-1.5-.4-2.6-1.2-3.4-.8-.7-1.9-1.1-3.1-1.1-1.2 0-2.2.3-3 .8s-1.5 1.1-1.9 1.7V44h-10.2V15.3h9v3.3c1.1-1.3 2.5-2.3 4-3.1z"/><path id="I_1_" class="st1" d="M699 5.6c0 2-.6 3.4-1.7 4.3-1.2.9-2.5 1.3-4.1 1.3-.8 0-1.5-.1-2.2-.3-.7-.2-1.3-.6-1.9-1-.5-.5-1-1-1.3-1.7-.3-.7-.5-1.5-.5-2.5s.2-1.8.5-2.5.8-1.3 1.3-1.7c.5-.4 1.2-.8 1.9-1 .7-.2 1.4-.3 2.2-.3 1.6 0 2.9.4 4.1 1.3 1.1.7 1.7 2.1 1.7 4.1zM688 44V15.3h10.2V44H688z"/><path id="T" class="st1" d="M733.6 4.8v10.5h7.8v8.4h-7.8V33c0 2.4 1.3 3.5 3.8 3.5.8 0 1.6-.1 2.3-.2.7-.1 1.5-.3 2.3-.6v7.9c-2.3.8-4.9 1.2-7.8 1.2-1.4 0-2.7-.2-4-.5-1.3-.3-2.4-.9-3.4-1.6s-1.8-1.8-2.4-3c-.6-1.3-.9-2.8-.9-4.8V23.7h-4.6v-8.4h4.6V7.2l10.1-2.4z"/><path id="Y" class="st1" d="M783.9 15.3h10.5l-12 31.8c-.8 2.2-1.8 3.9-2.8 5.4s-2.1 2.5-3.2 3.4c-1.1.8-2.3 1.4-3.5 1.7-1.2.3-2.4.5-3.7.5-.9 0-1.8-.1-2.7-.2-.9-.2-1.7-.3-2.6-.5V49c1.4.3 2.7.5 3.9.5 1.3 0 2.4-.4 3.4-1.1 1-.7 1.9-1.9 2.5-3.4l-13.5-29.5H771l7 17.1 5.9-17.3z"/></g><g id="GUIDE"><path id="U" class="st1" d="M211.3 248.9c-12.9-13-19.4-32.6-19.4-58.8V94.4h41.3v99.9c0 12.7 8 22 13.6 27.8 5.6 5.9 14 8.8 25.3 8.8s19.7-2.9 25.2-8.8 8.3-15.2 8.3-27.8V94.4h45.7v95.7c0 26.1-6.4 45.7-19.2 58.8-12.8 13-32.8 19.6-60 19.6-27.6-.1-47.9-6.6-60.8-19.6z"/><path id="I" class="st1" d="M384 266.2V94.5h46.5v171.7H384z"/><path id="E" class="st1" d="M705.2 230.5h89.1v35.7h-135V94.5h133.9v35.7h-88v30.4h75.9v35.7h-75.9v34.2z"/><g id="D"><path class="st1" d="M499.4 181.4h-36.3V94.5H550v36.3h-50.6z"/><path class="st0" d="M550 268.4c-47.9 0-86.9-39-86.9-86.9h36.3c0 27.9 22.7 50.6 50.6 50.6s50.6-22.7 50.6-50.6-22.7-50.6-50.6-50.6V94.5c47.9 0 86.9 39 86.9 86.9s-39 87-86.9 87z"/></g><path id="G" class="st1" d="M137.8 194.7v35.1H87.1c-28 0-50.7-22.7-50.7-50.7s22.7-50.7 50.7-50.7c14.1 0 26.8 5.8 36 15l26.3-25.1C133.6 102.1 111.5 92 87.1 92 39.1 92 0 131.1 0 179.1s39.1 87.1 87.1 87.1h87.1v-71.5h-36.4z"/></g></svg>