<?xml version="1.0" standalone="no"?>
<!DOCTYPE svg PUBLIC "-//W3C//DTD SVG 20010904//EN"
 "http://www.w3.org/TR/2001/REC-SVG-20010904/DTD/svg10.dtd">
<svg version="1.0" xmlns="http://www.w3.org/2000/svg"
 width="700.000000pt" height="700.000000pt" viewBox="0 0 700.000000 700.000000"
 preserveAspectRatio="xMidYMid meet">
<metadata>
Created by potrace 1.11, written by Peter Selinger 2001-2013
</metadata>
<g transform="translate(0.000000,700.000000) scale(0.100000,-0.100000)"
fill="#000000" stroke="none">
<path d="M3 5108 c2 -1041 6 -1906 9 -1923 3 -16 9 -57 13 -90 8 -76 14 -123
21 -157 3 -15 7 -39 9 -55 15 -122 141 -566 189 -668 8 -16 24 -55 36 -85 26
-67 150 -314 185 -369 14 -23 25 -43 25 -46 0 -6 172 -265 195 -293 7 -9 44
-56 82 -103 91 -115 179 -213 288 -319 79 -77 115 -109 225 -204 213 -184 565
-394 885 -531 198 -84 580 -193 770 -219 22 -3 74 -10 115 -16 219 -31 712
-35 868 -5 16 3 104 15 147 20 178 23 499 113 735 206 136 54 413 189 463 226
17 13 35 23 39 23 5 0 14 5 21 10 7 6 62 44 124 84 253 168 489 374 676 591
33 39 63 72 67 75 17 13 181 236 245 335 221 340 406 777 481 1140 16 79 54
301 59 350 4 33 9 71 11 85 9 46 11 524 4 605 -12 128 -21 202 -25 227 -3 13
-8 43 -11 68 -9 66 -70 335 -93 410 -11 36 -21 68 -21 72 0 4 -17 52 -36 105
-222 616 -576 1124 -1074 1541 -66 56 -304 230 -351 257 -235 137 -500 275
-527 275 -4 0 -26 8 -48 19 -98 47 -387 135 -562 172 -54 11 -106 22 -117 25
-11 2 -38 6 -60 9 -22 3 -51 7 -65 10 -13 2 -52 7 -86 11 -33 3 -74 8 -90 11
-16 3 -883 8 -1927 10 l-1898 4 4 -1893z m3726 419 c13 -4 49 -9 80 -13 31 -3
59 -8 62 -10 3 -2 21 -6 40 -9 146 -25 399 -115 533 -190 23 -12 57 -31 76
-42 126 -68 278 -184 405 -308 346 -341 559 -788 603 -1265 12 -139 5 -399
-13 -490 -3 -14 -10 -54 -16 -90 -6 -36 -14 -76 -19 -90 -5 -14 -11 -37 -14
-51 -6 -40 -65 -206 -97 -277 -16 -34 -29 -65 -29 -67 0 -11 -107 -196 -153
-265 -334 -500 -898 -834 -1497 -887 -136 -13 -387 -7 -475 10 -11 3 -42 8
-70 12 -124 17 -340 84 -480 148 -428 194 -750 502 -979 931 -90 170 -180 452
-202 632 -3 23 -7 53 -11 65 -3 13 -7 529 -8 1145 l-2 1121 1121 -2 c616 -1
1132 -5 1145 -8z"/>
</g>
</svg>
